<svg xmlns="http://www.w3.org/2000/svg" viewBox="0 0 24 24">
  <!-- Telegram Logo -->
  <path fill="#00ff41" d="M11.944 0A12 12 0 0 0 0 12a12 12 0 0 0 12 12 12 12 0 0 0 12-12A12 12 0 0 0 12 0a11.955 11.955 0 0 0-.056 0zm4.962 7.224c.1-.002.321.023.465.14a1 1 0 0 1 .171.163c.645.822 1.59 1.94 1.984 2.526.446.612.673.72.68.51.007-.202.002-.857-.036-1.704-.087-1.93-.263-4.81-.296-6.08-.033-1.27.923-1.231 1.265-.1l.024.116c.022.088.037.186.052.311.415 3.852.11 7.14-.462 7.14-.539 0-.135.87-.714 1.337-.765.552-1.668.211-2.764.211-.693 0-1.322.029-2.304.316-.412.105-.628.166-.888.266 1.212-1.044 2.36-2.801 4.347-4.848.314-.395.52-.347.86.159 1.497 2.378 2.632 4.42 2.966 5.205.793 1.923-.122 1.951-1.594.51-.511-.603-1.257-1.566-1.604-2.001-.338-.387-.563-.46-.8-.023-.121.212-.294.538-.385.872-.21.852-.572 2.111-.572 2.805v.073c-.001.072.001.144.002.217.015.994.083 1.722.777 1.922.691.195 1.29-.07 1.971-.794 1.374-1.487 1.961-3.496 1.233-5.785-.728-2.287-1.759-3.744-3.66-5.192-.691-.543-1.221-1.029-1.413-1.852-.341-1.437.895-2.779 2.259-2.779.693 0 1.678.335 2.914 1.295 1.385-.158 2.782-.156 4.237.009 2.302.24 4.206 1.127 5.694 2.65.766.737 1.333 1.39 1.886 2.18.427.63.987 1.441 1.32 2.028.165.287.328.574.462.922.134.348.365.854.515 1.21.15.356.365.842.548 1.21.182.368.456.92.682 1.37.226.45.54 1.07.81 1.59.27.52.608 1.17.854 1.606.246.435.588 1.043.88 1.574.292.531.697 1.265 1.041 1.905.688 1.27 1.635 3.04 2.087 4.108.452 1.069.773 1.84.773 2.3 0 .458-.321 1.229-.773 2.3m-5.958-1.82c-.04.03-.083.06-.126.09-.398.3-.798.599-1.197.899-.399.3-.798.599-1.197.899-.399.3-.799.6-1.198.9-.399.3-.798.6-1.197.9-.199.15-.598.45-.897.75-.298.3-.597.6-.896.9-.299.3-.598.6-.897.9-.299.3-.598.6-.897.9-.299.3-.598.59-.897.89-.299.3-.6.6-.899.9-.399.3-.798.6-1.197.9-.399.3-.798.6-1.197.9-.2.15-.4.3-.6.45-.2.15-.4.3-.6.45-.2.15-.4.3-.6.45-.2.15-.4.3-.6.45-.2.15-.4.29-.6.44-.2.15-.4.3-.6.45-.2.15-.4.3-.6.45-.2.15-.4.3-.6.45-.2.15-.4.3-.6.45-.2.15-.4.3-.6.45-.2.15-.4.3-.6.45-.2.15-.4.3-.6.45-.2.15-.4.3-.6.45-.2.15-.4.3-.6.45"/>
</svg>